<mxfile host="65bd71144e">
    <diagram id="QpWH5gpnXC93tTbTj7U9" name="Page-1">
        <mxGraphModel dx="514" dy="800" grid="1" gridSize="10" guides="1" tooltips="1" connect="1" arrows="1" fold="1" page="1" pageScale="1" pageWidth="2339" pageHeight="3300" math="0" shadow="0">
            <root>
                <mxCell id="0"/>
                <mxCell id="1" parent="0"/>
                <mxCell id="rkFF4-tBA8jDZ-ocCVDX-1" value="100" style="ellipse;whiteSpace=wrap;html=1;aspect=fixed;" parent="1" vertex="1">
                    <mxGeometry x="740" y="270" width="80" height="80" as="geometry"/>
                </mxCell>
                <mxCell id="rkFF4-tBA8jDZ-ocCVDX-2" value="Access balance" style="rounded=1;whiteSpace=wrap;html=1;" parent="1" vertex="1">
                    <mxGeometry x="460" y="410" width="120" height="60" as="geometry"/>
                </mxCell>
                <mxCell id="rkFF4-tBA8jDZ-ocCVDX-3" value="Access balance" style="rounded=1;whiteSpace=wrap;html=1;" parent="1" vertex="1">
                    <mxGeometry x="870" y="470" width="120" height="60" as="geometry"/>
                </mxCell>
                <mxCell id="rkFF4-tBA8jDZ-ocCVDX-4" value="Access balance" style="rounded=1;whiteSpace=wrap;html=1;" parent="1" vertex="1">
                    <mxGeometry x="1130" y="340" width="120" height="60" as="geometry"/>
                </mxCell>
                <mxCell id="rkFF4-tBA8jDZ-ocCVDX-5" value="Peter" style="text;html=1;strokeColor=none;fillColor=none;align=center;verticalAlign=middle;whiteSpace=wrap;rounded=0;strokeWidth=3;" parent="1" vertex="1">
                    <mxGeometry x="500" y="220" width="40" height="20" as="geometry"/>
                </mxCell>
                <mxCell id="rkFF4-tBA8jDZ-ocCVDX-8" value="Bank" style="text;html=1;strokeColor=none;fillColor=none;align=center;verticalAlign=middle;whiteSpace=wrap;rounded=0;strokeWidth=3;" parent="1" vertex="1">
                    <mxGeometry x="760" y="220" width="40" height="20" as="geometry"/>
                </mxCell>
                <mxCell id="rkFF4-tBA8jDZ-ocCVDX-9" value="Paul" style="text;html=1;strokeColor=none;fillColor=none;align=center;verticalAlign=middle;whiteSpace=wrap;rounded=0;strokeWidth=3;" parent="1" vertex="1">
                    <mxGeometry x="910" y="220" width="40" height="20" as="geometry"/>
                </mxCell>
                <mxCell id="rkFF4-tBA8jDZ-ocCVDX-10" value="Mary" style="text;html=1;strokeColor=none;fillColor=none;align=center;verticalAlign=middle;whiteSpace=wrap;rounded=0;strokeWidth=3;" parent="1" vertex="1">
                    <mxGeometry x="1180" y="220" width="40" height="20" as="geometry"/>
                </mxCell>
                <mxCell id="rkFF4-tBA8jDZ-ocCVDX-11" value="" style="endArrow=classic;html=1;exitX=0;exitY=0.5;exitDx=0;exitDy=0;entryX=0.425;entryY=0.017;entryDx=0;entryDy=0;entryPerimeter=0;" parent="1" source="rkFF4-tBA8jDZ-ocCVDX-1" target="rkFF4-tBA8jDZ-ocCVDX-2" edge="1">
                    <mxGeometry width="50" height="50" relative="1" as="geometry">
                        <mxPoint x="810" y="530" as="sourcePoint"/>
                        <mxPoint x="860" y="480" as="targetPoint"/>
                    </mxGeometry>
                </mxCell>
                <mxCell id="rkFF4-tBA8jDZ-ocCVDX-12" value="" style="endArrow=classic;html=1;exitX=0;exitY=0.5;exitDx=0;exitDy=0;" parent="1" target="rkFF4-tBA8jDZ-ocCVDX-3" edge="1">
                    <mxGeometry width="50" height="50" relative="1" as="geometry">
                        <mxPoint x="820" y="308.98" as="sourcePoint"/>
                        <mxPoint x="591" y="410" as="targetPoint"/>
                    </mxGeometry>
                </mxCell>
                <mxCell id="rkFF4-tBA8jDZ-ocCVDX-13" value="" style="endArrow=classic;html=1;exitX=1;exitY=0.5;exitDx=0;exitDy=0;" parent="1" source="rkFF4-tBA8jDZ-ocCVDX-1" target="rkFF4-tBA8jDZ-ocCVDX-4" edge="1">
                    <mxGeometry width="50" height="50" relative="1" as="geometry">
                        <mxPoint x="1379" y="298.98" as="sourcePoint"/>
                        <mxPoint x="1150" y="400" as="targetPoint"/>
                    </mxGeometry>
                </mxCell>
                <mxCell id="rkFF4-tBA8jDZ-ocCVDX-14" value="New value 100+10 =110" style="rounded=1;whiteSpace=wrap;html=1;" parent="1" vertex="1">
                    <mxGeometry x="460" y="530" width="120" height="60" as="geometry"/>
                </mxCell>
                <mxCell id="rkFF4-tBA8jDZ-ocCVDX-15" value="" style="endArrow=classic;html=1;" parent="1" edge="1">
                    <mxGeometry width="50" height="50" relative="1" as="geometry">
                        <mxPoint x="370" y="220" as="sourcePoint"/>
                        <mxPoint x="370" y="800" as="targetPoint"/>
                    </mxGeometry>
                </mxCell>
                <mxCell id="rkFF4-tBA8jDZ-ocCVDX-16" value="Time" style="text;html=1;strokeColor=none;fillColor=none;align=center;verticalAlign=middle;whiteSpace=wrap;rounded=0;strokeWidth=3;" parent="1" vertex="1">
                    <mxGeometry x="350" y="820" width="40" height="20" as="geometry"/>
                </mxCell>
                <mxCell id="rkFF4-tBA8jDZ-ocCVDX-17" value="New value 100-20 =80" style="rounded=1;whiteSpace=wrap;html=1;" parent="1" vertex="1">
                    <mxGeometry x="870" y="590" width="120" height="60" as="geometry"/>
                </mxCell>
                <mxCell id="rkFF4-tBA8jDZ-ocCVDX-18" value="New value 100/2 =50" style="rounded=1;whiteSpace=wrap;html=1;" parent="1" vertex="1">
                    <mxGeometry x="1140" y="530" width="120" height="60" as="geometry"/>
                </mxCell>
                <mxCell id="rkFF4-tBA8jDZ-ocCVDX-19" value="Set! balance to 50" style="rounded=1;whiteSpace=wrap;html=1;" parent="1" vertex="1">
                    <mxGeometry x="1140" y="770" width="120" height="60" as="geometry"/>
                </mxCell>
                <mxCell id="rkFF4-tBA8jDZ-ocCVDX-20" value="Set! balance to 80" style="rounded=1;whiteSpace=wrap;html=1;" parent="1" vertex="1">
                    <mxGeometry x="870" y="710" width="120" height="60" as="geometry"/>
                </mxCell>
                <mxCell id="rkFF4-tBA8jDZ-ocCVDX-21" value="Set! balance to 110" style="rounded=1;whiteSpace=wrap;html=1;" parent="1" vertex="1">
                    <mxGeometry x="460" y="650" width="120" height="60" as="geometry"/>
                </mxCell>
                <mxCell id="rkFF4-tBA8jDZ-ocCVDX-22" value="" style="endArrow=classic;html=1;exitX=0.5;exitY=1;exitDx=0;exitDy=0;entryX=0.5;entryY=0;entryDx=0;entryDy=0;" parent="1" source="rkFF4-tBA8jDZ-ocCVDX-2" target="rkFF4-tBA8jDZ-ocCVDX-14" edge="1">
                    <mxGeometry width="50" height="50" relative="1" as="geometry">
                        <mxPoint x="650" y="580" as="sourcePoint"/>
                        <mxPoint x="700" y="530" as="targetPoint"/>
                    </mxGeometry>
                </mxCell>
                <mxCell id="rkFF4-tBA8jDZ-ocCVDX-23" value="" style="endArrow=classic;html=1;exitX=0.5;exitY=1;exitDx=0;exitDy=0;entryX=0.5;entryY=0;entryDx=0;entryDy=0;" parent="1" edge="1">
                    <mxGeometry width="50" height="50" relative="1" as="geometry">
                        <mxPoint x="519.5" y="590" as="sourcePoint"/>
                        <mxPoint x="519.5" y="650" as="targetPoint"/>
                    </mxGeometry>
                </mxCell>
                <mxCell id="rkFF4-tBA8jDZ-ocCVDX-24" value="" style="endArrow=classic;html=1;exitX=0.5;exitY=1;exitDx=0;exitDy=0;entryX=0.5;entryY=0;entryDx=0;entryDy=0;" parent="1" edge="1">
                    <mxGeometry width="50" height="50" relative="1" as="geometry">
                        <mxPoint x="929.5" y="530" as="sourcePoint"/>
                        <mxPoint x="929.5" y="590" as="targetPoint"/>
                    </mxGeometry>
                </mxCell>
                <mxCell id="rkFF4-tBA8jDZ-ocCVDX-25" value="" style="endArrow=classic;html=1;entryX=0.5;entryY=0;entryDx=0;entryDy=0;" parent="1" target="rkFF4-tBA8jDZ-ocCVDX-20" edge="1">
                    <mxGeometry width="50" height="50" relative="1" as="geometry">
                        <mxPoint x="930" y="650" as="sourcePoint"/>
                        <mxPoint x="929.5" y="700" as="targetPoint"/>
                    </mxGeometry>
                </mxCell>
                <mxCell id="rkFF4-tBA8jDZ-ocCVDX-27" value="" style="endArrow=classic;html=1;entryX=0.408;entryY=0.017;entryDx=0;entryDy=0;entryPerimeter=0;" parent="1" target="rkFF4-tBA8jDZ-ocCVDX-18" edge="1">
                    <mxGeometry width="50" height="50" relative="1" as="geometry">
                        <mxPoint x="1189.5" y="400" as="sourcePoint"/>
                        <mxPoint x="1189.5" y="460" as="targetPoint"/>
                    </mxGeometry>
                </mxCell>
                <mxCell id="rkFF4-tBA8jDZ-ocCVDX-28" value="" style="endArrow=classic;html=1;entryX=0.408;entryY=-0.017;entryDx=0;entryDy=0;entryPerimeter=0;" parent="1" target="rkFF4-tBA8jDZ-ocCVDX-19" edge="1">
                    <mxGeometry width="50" height="50" relative="1" as="geometry">
                        <mxPoint x="1190.04" y="590" as="sourcePoint"/>
                        <mxPoint x="1189.5" y="721.02" as="targetPoint"/>
                    </mxGeometry>
                </mxCell>
                <mxCell id="rkFF4-tBA8jDZ-ocCVDX-30" value="50" style="ellipse;whiteSpace=wrap;html=1;aspect=fixed;strokeWidth=1;fillColor=#dae8fc;strokeColor=#6c8ebf;" parent="1" vertex="1">
                    <mxGeometry x="1030" y="760" width="80" height="80" as="geometry"/>
                </mxCell>
                <mxCell id="rkFF4-tBA8jDZ-ocCVDX-31" value="80" style="ellipse;whiteSpace=wrap;html=1;aspect=fixed;strokeWidth=1;fillColor=#dae8fc;strokeColor=#6c8ebf;" parent="1" vertex="1">
                    <mxGeometry x="760" y="700" width="80" height="80" as="geometry"/>
                </mxCell>
                <mxCell id="rkFF4-tBA8jDZ-ocCVDX-32" value="&lt;div&gt;110&lt;/div&gt;" style="ellipse;whiteSpace=wrap;html=1;aspect=fixed;strokeWidth=1;fillColor=#dae8fc;strokeColor=#6c8ebf;" parent="1" vertex="1">
                    <mxGeometry x="620" y="640" width="80" height="80" as="geometry"/>
                </mxCell>
                <mxCell id="rkFF4-tBA8jDZ-ocCVDX-35" value="" style="shape=flexArrow;endArrow=classic;html=1;entryX=1;entryY=0.5;entryDx=0;entryDy=0;" parent="1" source="rkFF4-tBA8jDZ-ocCVDX-20" target="rkFF4-tBA8jDZ-ocCVDX-31" edge="1">
                    <mxGeometry width="50" height="50" relative="1" as="geometry">
                        <mxPoint x="900" y="820" as="sourcePoint"/>
                        <mxPoint x="890" y="790" as="targetPoint"/>
                    </mxGeometry>
                </mxCell>
                <mxCell id="rkFF4-tBA8jDZ-ocCVDX-38" value="" style="shape=flexArrow;endArrow=classic;html=1;entryX=0;entryY=0.5;entryDx=0;entryDy=0;exitX=1;exitY=0.5;exitDx=0;exitDy=0;" parent="1" source="rkFF4-tBA8jDZ-ocCVDX-21" target="rkFF4-tBA8jDZ-ocCVDX-32" edge="1">
                    <mxGeometry width="50" height="50" relative="1" as="geometry">
                        <mxPoint x="570" y="810" as="sourcePoint"/>
                        <mxPoint x="620" y="760" as="targetPoint"/>
                    </mxGeometry>
                </mxCell>
                <mxCell id="rkFF4-tBA8jDZ-ocCVDX-39" value="" style="shape=flexArrow;endArrow=classic;html=1;entryX=1;entryY=0.5;entryDx=0;entryDy=0;exitX=0;exitY=0.5;exitDx=0;exitDy=0;" parent="1" source="rkFF4-tBA8jDZ-ocCVDX-19" target="rkFF4-tBA8jDZ-ocCVDX-30" edge="1">
                    <mxGeometry width="50" height="50" relative="1" as="geometry">
                        <mxPoint x="1110" y="730" as="sourcePoint"/>
                        <mxPoint x="1160" y="680" as="targetPoint"/>
                    </mxGeometry>
                </mxCell>
                <mxCell id="rkFF4-tBA8jDZ-ocCVDX-40" value="100" style="ellipse;whiteSpace=wrap;html=1;aspect=fixed;" parent="1" vertex="1">
                    <mxGeometry x="1930" y="270" width="80" height="80" as="geometry"/>
                </mxCell>
                <mxCell id="rkFF4-tBA8jDZ-ocCVDX-41" value="Access balance" style="rounded=1;whiteSpace=wrap;html=1;" parent="1" vertex="1">
                    <mxGeometry x="1670" y="780" width="120" height="60" as="geometry"/>
                </mxCell>
                <mxCell id="rkFF4-tBA8jDZ-ocCVDX-42" value="Access balance" style="rounded=1;whiteSpace=wrap;html=1;" parent="1" vertex="1">
                    <mxGeometry x="2060" y="470" width="120" height="60" as="geometry"/>
                </mxCell>
                <mxCell id="rkFF4-tBA8jDZ-ocCVDX-43" value="Access balance" style="rounded=1;whiteSpace=wrap;html=1;" parent="1" vertex="1">
                    <mxGeometry x="2320" y="340" width="120" height="60" as="geometry"/>
                </mxCell>
                <mxCell id="rkFF4-tBA8jDZ-ocCVDX-44" value="Peter" style="text;html=1;strokeColor=none;fillColor=none;align=center;verticalAlign=middle;whiteSpace=wrap;rounded=0;strokeWidth=3;" parent="1" vertex="1">
                    <mxGeometry x="1690" y="220" width="40" height="20" as="geometry"/>
                </mxCell>
                <mxCell id="rkFF4-tBA8jDZ-ocCVDX-45" value="Bank" style="text;html=1;strokeColor=none;fillColor=none;align=center;verticalAlign=middle;whiteSpace=wrap;rounded=0;strokeWidth=3;" parent="1" vertex="1">
                    <mxGeometry x="1950" y="220" width="40" height="20" as="geometry"/>
                </mxCell>
                <mxCell id="rkFF4-tBA8jDZ-ocCVDX-46" value="Paul" style="text;html=1;strokeColor=none;fillColor=none;align=center;verticalAlign=middle;whiteSpace=wrap;rounded=0;strokeWidth=3;" parent="1" vertex="1">
                    <mxGeometry x="2100" y="220" width="40" height="20" as="geometry"/>
                </mxCell>
                <mxCell id="rkFF4-tBA8jDZ-ocCVDX-47" value="Mary" style="text;html=1;strokeColor=none;fillColor=none;align=center;verticalAlign=middle;whiteSpace=wrap;rounded=0;strokeWidth=3;" parent="1" vertex="1">
                    <mxGeometry x="2370" y="220" width="40" height="20" as="geometry"/>
                </mxCell>
                <mxCell id="rkFF4-tBA8jDZ-ocCVDX-48" value="" style="endArrow=classic;html=1;exitX=0;exitY=0.5;exitDx=0;exitDy=0;entryX=0.425;entryY=0.017;entryDx=0;entryDy=0;entryPerimeter=0;" parent="1" source="rkFF4-tBA8jDZ-ocCVDX-66" target="rkFF4-tBA8jDZ-ocCVDX-41" edge="1">
                    <mxGeometry width="50" height="50" relative="1" as="geometry">
                        <mxPoint x="2000" y="530" as="sourcePoint"/>
                        <mxPoint x="2050" y="480" as="targetPoint"/>
                    </mxGeometry>
                </mxCell>
                <mxCell id="rkFF4-tBA8jDZ-ocCVDX-49" value="" style="endArrow=classic;html=1;exitX=0;exitY=0.5;exitDx=0;exitDy=0;" parent="1" target="rkFF4-tBA8jDZ-ocCVDX-42" edge="1">
                    <mxGeometry width="50" height="50" relative="1" as="geometry">
                        <mxPoint x="2010" y="308.98" as="sourcePoint"/>
                        <mxPoint x="1781" y="410" as="targetPoint"/>
                    </mxGeometry>
                </mxCell>
                <mxCell id="rkFF4-tBA8jDZ-ocCVDX-50" value="" style="endArrow=classic;html=1;exitX=1;exitY=0.5;exitDx=0;exitDy=0;" parent="1" source="rkFF4-tBA8jDZ-ocCVDX-40" target="rkFF4-tBA8jDZ-ocCVDX-43" edge="1">
                    <mxGeometry width="50" height="50" relative="1" as="geometry">
                        <mxPoint x="2569" y="298.98" as="sourcePoint"/>
                        <mxPoint x="2340" y="400" as="targetPoint"/>
                    </mxGeometry>
                </mxCell>
                <mxCell id="rkFF4-tBA8jDZ-ocCVDX-51" value="New value 80+10 = 90" style="rounded=1;whiteSpace=wrap;html=1;" parent="1" vertex="1">
                    <mxGeometry x="1670" y="900" width="120" height="60" as="geometry"/>
                </mxCell>
                <mxCell id="rkFF4-tBA8jDZ-ocCVDX-52" value="" style="endArrow=classic;html=1;" parent="1" edge="1">
                    <mxGeometry width="50" height="50" relative="1" as="geometry">
                        <mxPoint x="1560" y="220" as="sourcePoint"/>
                        <mxPoint x="1560" y="1210" as="targetPoint"/>
                    </mxGeometry>
                </mxCell>
                <mxCell id="rkFF4-tBA8jDZ-ocCVDX-53" value="Time" style="text;html=1;strokeColor=none;fillColor=none;align=center;verticalAlign=middle;whiteSpace=wrap;rounded=0;strokeWidth=3;" parent="1" vertex="1">
                    <mxGeometry x="1540" y="1230" width="40" height="20" as="geometry"/>
                </mxCell>
                <mxCell id="rkFF4-tBA8jDZ-ocCVDX-54" value="New value 100-20 =80" style="rounded=1;whiteSpace=wrap;html=1;" parent="1" vertex="1">
                    <mxGeometry x="2060" y="590" width="120" height="60" as="geometry"/>
                </mxCell>
                <mxCell id="rkFF4-tBA8jDZ-ocCVDX-55" value="New value 100/2 =50" style="rounded=1;whiteSpace=wrap;html=1;" parent="1" vertex="1">
                    <mxGeometry x="2330" y="530" width="120" height="60" as="geometry"/>
                </mxCell>
                <mxCell id="rkFF4-tBA8jDZ-ocCVDX-56" value="Set! balance to 50" style="rounded=1;whiteSpace=wrap;html=1;" parent="1" vertex="1">
                    <mxGeometry x="2330" y="840" width="120" height="60" as="geometry"/>
                </mxCell>
                <mxCell id="rkFF4-tBA8jDZ-ocCVDX-57" value="Set! balance to 80" style="rounded=1;whiteSpace=wrap;html=1;" parent="1" vertex="1">
                    <mxGeometry x="2060" y="710" width="120" height="60" as="geometry"/>
                </mxCell>
                <mxCell id="rkFF4-tBA8jDZ-ocCVDX-58" value="Set! balance to 90" style="rounded=1;whiteSpace=wrap;html=1;" parent="1" vertex="1">
                    <mxGeometry x="1670" y="1020" width="120" height="60" as="geometry"/>
                </mxCell>
                <mxCell id="rkFF4-tBA8jDZ-ocCVDX-59" value="" style="endArrow=classic;html=1;exitX=0.5;exitY=1;exitDx=0;exitDy=0;entryX=0.5;entryY=0;entryDx=0;entryDy=0;" parent="1" source="rkFF4-tBA8jDZ-ocCVDX-41" target="rkFF4-tBA8jDZ-ocCVDX-51" edge="1">
                    <mxGeometry width="50" height="50" relative="1" as="geometry">
                        <mxPoint x="1860" y="950" as="sourcePoint"/>
                        <mxPoint x="1910" y="900" as="targetPoint"/>
                    </mxGeometry>
                </mxCell>
                <mxCell id="rkFF4-tBA8jDZ-ocCVDX-60" value="" style="endArrow=classic;html=1;exitX=0.5;exitY=1;exitDx=0;exitDy=0;entryX=0.5;entryY=0;entryDx=0;entryDy=0;" parent="1" edge="1">
                    <mxGeometry width="50" height="50" relative="1" as="geometry">
                        <mxPoint x="1729.5" y="960" as="sourcePoint"/>
                        <mxPoint x="1729.5" y="1020" as="targetPoint"/>
                    </mxGeometry>
                </mxCell>
                <mxCell id="rkFF4-tBA8jDZ-ocCVDX-61" value="" style="endArrow=classic;html=1;exitX=0.5;exitY=1;exitDx=0;exitDy=0;entryX=0.5;entryY=0;entryDx=0;entryDy=0;" parent="1" edge="1">
                    <mxGeometry width="50" height="50" relative="1" as="geometry">
                        <mxPoint x="2119.5" y="530" as="sourcePoint"/>
                        <mxPoint x="2119.5" y="590" as="targetPoint"/>
                    </mxGeometry>
                </mxCell>
                <mxCell id="rkFF4-tBA8jDZ-ocCVDX-62" value="" style="endArrow=classic;html=1;entryX=0.5;entryY=0;entryDx=0;entryDy=0;" parent="1" target="rkFF4-tBA8jDZ-ocCVDX-57" edge="1">
                    <mxGeometry width="50" height="50" relative="1" as="geometry">
                        <mxPoint x="2120" y="650" as="sourcePoint"/>
                        <mxPoint x="2119.5" y="700" as="targetPoint"/>
                    </mxGeometry>
                </mxCell>
                <mxCell id="rkFF4-tBA8jDZ-ocCVDX-63" value="" style="endArrow=classic;html=1;entryX=0.408;entryY=0.017;entryDx=0;entryDy=0;entryPerimeter=0;" parent="1" target="rkFF4-tBA8jDZ-ocCVDX-55" edge="1">
                    <mxGeometry width="50" height="50" relative="1" as="geometry">
                        <mxPoint x="2379.5" y="400" as="sourcePoint"/>
                        <mxPoint x="2379.5" y="460" as="targetPoint"/>
                    </mxGeometry>
                </mxCell>
                <mxCell id="rkFF4-tBA8jDZ-ocCVDX-64" value="" style="endArrow=classic;html=1;entryX=0.408;entryY=-0.017;entryDx=0;entryDy=0;entryPerimeter=0;" parent="1" target="rkFF4-tBA8jDZ-ocCVDX-56" edge="1">
                    <mxGeometry width="50" height="50" relative="1" as="geometry">
                        <mxPoint x="2380.04" y="590" as="sourcePoint"/>
                        <mxPoint x="2379.5" y="721.02" as="targetPoint"/>
                    </mxGeometry>
                </mxCell>
                <mxCell id="rkFF4-tBA8jDZ-ocCVDX-65" value="50" style="ellipse;whiteSpace=wrap;html=1;aspect=fixed;strokeWidth=1;fillColor=#dae8fc;strokeColor=#6c8ebf;" parent="1" vertex="1">
                    <mxGeometry x="2220" y="830" width="80" height="80" as="geometry"/>
                </mxCell>
                <mxCell id="rkFF4-tBA8jDZ-ocCVDX-66" value="80" style="ellipse;whiteSpace=wrap;html=1;aspect=fixed;strokeWidth=1;fillColor=#dae8fc;strokeColor=#6c8ebf;" parent="1" vertex="1">
                    <mxGeometry x="1950" y="700" width="80" height="80" as="geometry"/>
                </mxCell>
                <mxCell id="rkFF4-tBA8jDZ-ocCVDX-67" value="90" style="ellipse;whiteSpace=wrap;html=1;aspect=fixed;strokeWidth=1;fillColor=#dae8fc;strokeColor=#6c8ebf;" parent="1" vertex="1">
                    <mxGeometry x="1830" y="1010" width="80" height="80" as="geometry"/>
                </mxCell>
                <mxCell id="rkFF4-tBA8jDZ-ocCVDX-68" value="" style="shape=flexArrow;endArrow=classic;html=1;entryX=1;entryY=0.5;entryDx=0;entryDy=0;" parent="1" source="rkFF4-tBA8jDZ-ocCVDX-57" target="rkFF4-tBA8jDZ-ocCVDX-66" edge="1">
                    <mxGeometry width="50" height="50" relative="1" as="geometry">
                        <mxPoint x="2090" y="820" as="sourcePoint"/>
                        <mxPoint x="2080" y="790" as="targetPoint"/>
                    </mxGeometry>
                </mxCell>
                <mxCell id="rkFF4-tBA8jDZ-ocCVDX-69" value="" style="shape=flexArrow;endArrow=classic;html=1;entryX=0;entryY=0.5;entryDx=0;entryDy=0;exitX=1;exitY=0.5;exitDx=0;exitDy=0;" parent="1" source="rkFF4-tBA8jDZ-ocCVDX-58" target="rkFF4-tBA8jDZ-ocCVDX-67" edge="1">
                    <mxGeometry width="50" height="50" relative="1" as="geometry">
                        <mxPoint x="1780" y="1180" as="sourcePoint"/>
                        <mxPoint x="1830" y="1130" as="targetPoint"/>
                    </mxGeometry>
                </mxCell>
                <mxCell id="rkFF4-tBA8jDZ-ocCVDX-70" value="" style="shape=flexArrow;endArrow=classic;html=1;entryX=1;entryY=0.5;entryDx=0;entryDy=0;exitX=0;exitY=0.5;exitDx=0;exitDy=0;" parent="1" source="rkFF4-tBA8jDZ-ocCVDX-56" target="rkFF4-tBA8jDZ-ocCVDX-65" edge="1">
                    <mxGeometry width="50" height="50" relative="1" as="geometry">
                        <mxPoint x="2300" y="800" as="sourcePoint"/>
                        <mxPoint x="2350" y="750" as="targetPoint"/>
                    </mxGeometry>
                </mxCell>
                <mxCell id="rkFF4-tBA8jDZ-ocCVDX-72" value="100" style="ellipse;whiteSpace=wrap;html=1;aspect=fixed;" parent="1" vertex="1">
                    <mxGeometry x="3060" y="270" width="80" height="80" as="geometry"/>
                </mxCell>
                <mxCell id="rkFF4-tBA8jDZ-ocCVDX-73" value="Access balance" style="rounded=1;whiteSpace=wrap;html=1;" parent="1" vertex="1">
                    <mxGeometry x="2800" y="930" width="120" height="60" as="geometry"/>
                </mxCell>
                <mxCell id="rkFF4-tBA8jDZ-ocCVDX-74" value="Access balance" style="rounded=1;whiteSpace=wrap;html=1;" parent="1" vertex="1">
                    <mxGeometry x="3190" y="470" width="120" height="60" as="geometry"/>
                </mxCell>
                <mxCell id="rkFF4-tBA8jDZ-ocCVDX-75" value="Access balance" style="rounded=1;whiteSpace=wrap;html=1;" parent="1" vertex="1">
                    <mxGeometry x="3450" y="340" width="120" height="60" as="geometry"/>
                </mxCell>
                <mxCell id="rkFF4-tBA8jDZ-ocCVDX-76" value="Peter" style="text;html=1;strokeColor=none;fillColor=none;align=center;verticalAlign=middle;whiteSpace=wrap;rounded=0;strokeWidth=3;" parent="1" vertex="1">
                    <mxGeometry x="2820" y="220" width="40" height="20" as="geometry"/>
                </mxCell>
                <mxCell id="rkFF4-tBA8jDZ-ocCVDX-77" value="Bank" style="text;html=1;strokeColor=none;fillColor=none;align=center;verticalAlign=middle;whiteSpace=wrap;rounded=0;strokeWidth=3;" parent="1" vertex="1">
                    <mxGeometry x="3080" y="220" width="40" height="20" as="geometry"/>
                </mxCell>
                <mxCell id="rkFF4-tBA8jDZ-ocCVDX-78" value="Paul" style="text;html=1;strokeColor=none;fillColor=none;align=center;verticalAlign=middle;whiteSpace=wrap;rounded=0;strokeWidth=3;" parent="1" vertex="1">
                    <mxGeometry x="3230" y="220" width="40" height="20" as="geometry"/>
                </mxCell>
                <mxCell id="rkFF4-tBA8jDZ-ocCVDX-79" value="Mary" style="text;html=1;strokeColor=none;fillColor=none;align=center;verticalAlign=middle;whiteSpace=wrap;rounded=0;strokeWidth=3;" parent="1" vertex="1">
                    <mxGeometry x="3500" y="220" width="40" height="20" as="geometry"/>
                </mxCell>
                <mxCell id="rkFF4-tBA8jDZ-ocCVDX-80" value="" style="endArrow=classic;html=1;exitX=0;exitY=0.5;exitDx=0;exitDy=0;entryX=0.425;entryY=0.017;entryDx=0;entryDy=0;entryPerimeter=0;" parent="1" source="rkFF4-tBA8jDZ-ocCVDX-97" target="rkFF4-tBA8jDZ-ocCVDX-73" edge="1">
                    <mxGeometry width="50" height="50" relative="1" as="geometry">
                        <mxPoint x="3130" y="530" as="sourcePoint"/>
                        <mxPoint x="3180" y="480" as="targetPoint"/>
                    </mxGeometry>
                </mxCell>
                <mxCell id="rkFF4-tBA8jDZ-ocCVDX-81" value="" style="endArrow=classic;html=1;exitX=0;exitY=0.5;exitDx=0;exitDy=0;" parent="1" target="rkFF4-tBA8jDZ-ocCVDX-74" edge="1">
                    <mxGeometry width="50" height="50" relative="1" as="geometry">
                        <mxPoint x="3140" y="308.98000000000025" as="sourcePoint"/>
                        <mxPoint x="2911" y="410" as="targetPoint"/>
                    </mxGeometry>
                </mxCell>
                <mxCell id="rkFF4-tBA8jDZ-ocCVDX-82" value="" style="endArrow=classic;html=1;exitX=1;exitY=0.5;exitDx=0;exitDy=0;" parent="1" source="rkFF4-tBA8jDZ-ocCVDX-72" target="rkFF4-tBA8jDZ-ocCVDX-75" edge="1">
                    <mxGeometry width="50" height="50" relative="1" as="geometry">
                        <mxPoint x="3699" y="298.98" as="sourcePoint"/>
                        <mxPoint x="3470" y="400" as="targetPoint"/>
                    </mxGeometry>
                </mxCell>
                <mxCell id="rkFF4-tBA8jDZ-ocCVDX-83" value="New value 50+10 = 60" style="rounded=1;whiteSpace=wrap;html=1;" parent="1" vertex="1">
                    <mxGeometry x="2800" y="1050" width="120" height="60" as="geometry"/>
                </mxCell>
                <mxCell id="rkFF4-tBA8jDZ-ocCVDX-84" value="" style="endArrow=classic;html=1;" parent="1" edge="1">
                    <mxGeometry width="50" height="50" relative="1" as="geometry">
                        <mxPoint x="2690" y="220" as="sourcePoint"/>
                        <mxPoint x="2690" y="1210" as="targetPoint"/>
                    </mxGeometry>
                </mxCell>
                <mxCell id="rkFF4-tBA8jDZ-ocCVDX-85" value="Time" style="text;html=1;strokeColor=none;fillColor=none;align=center;verticalAlign=middle;whiteSpace=wrap;rounded=0;strokeWidth=3;" parent="1" vertex="1">
                    <mxGeometry x="2670" y="1230" width="40" height="20" as="geometry"/>
                </mxCell>
                <mxCell id="rkFF4-tBA8jDZ-ocCVDX-86" value="New value 100-20 =80" style="rounded=1;whiteSpace=wrap;html=1;" parent="1" vertex="1">
                    <mxGeometry x="3190" y="590" width="120" height="60" as="geometry"/>
                </mxCell>
                <mxCell id="rkFF4-tBA8jDZ-ocCVDX-87" value="New value 100/2 =50" style="rounded=1;whiteSpace=wrap;html=1;" parent="1" vertex="1">
                    <mxGeometry x="3460" y="530" width="120" height="60" as="geometry"/>
                </mxCell>
                <mxCell id="rkFF4-tBA8jDZ-ocCVDX-88" value="Set! balance to 50" style="rounded=1;whiteSpace=wrap;html=1;" parent="1" vertex="1">
                    <mxGeometry x="3460" y="840" width="120" height="60" as="geometry"/>
                </mxCell>
                <mxCell id="rkFF4-tBA8jDZ-ocCVDX-89" value="Set! balance to 80" style="rounded=1;whiteSpace=wrap;html=1;" parent="1" vertex="1">
                    <mxGeometry x="3190" y="710" width="120" height="60" as="geometry"/>
                </mxCell>
                <mxCell id="rkFF4-tBA8jDZ-ocCVDX-90" value="Set! balance to 60" style="rounded=1;whiteSpace=wrap;html=1;" parent="1" vertex="1">
                    <mxGeometry x="2800" y="1170" width="120" height="60" as="geometry"/>
                </mxCell>
                <mxCell id="rkFF4-tBA8jDZ-ocCVDX-91" value="" style="endArrow=classic;html=1;exitX=0.5;exitY=1;exitDx=0;exitDy=0;entryX=0.5;entryY=0;entryDx=0;entryDy=0;" parent="1" source="rkFF4-tBA8jDZ-ocCVDX-73" target="rkFF4-tBA8jDZ-ocCVDX-83" edge="1">
                    <mxGeometry width="50" height="50" relative="1" as="geometry">
                        <mxPoint x="2990" y="1100" as="sourcePoint"/>
                        <mxPoint x="3040" y="1050" as="targetPoint"/>
                    </mxGeometry>
                </mxCell>
                <mxCell id="rkFF4-tBA8jDZ-ocCVDX-92" value="" style="endArrow=classic;html=1;exitX=0.5;exitY=1;exitDx=0;exitDy=0;entryX=0.5;entryY=0;entryDx=0;entryDy=0;" parent="1" edge="1">
                    <mxGeometry width="50" height="50" relative="1" as="geometry">
                        <mxPoint x="2859.5" y="1110" as="sourcePoint"/>
                        <mxPoint x="2859.5" y="1170" as="targetPoint"/>
                    </mxGeometry>
                </mxCell>
                <mxCell id="rkFF4-tBA8jDZ-ocCVDX-93" value="" style="endArrow=classic;html=1;exitX=0.5;exitY=1;exitDx=0;exitDy=0;entryX=0.5;entryY=0;entryDx=0;entryDy=0;" parent="1" edge="1">
                    <mxGeometry width="50" height="50" relative="1" as="geometry">
                        <mxPoint x="3249.5" y="530" as="sourcePoint"/>
                        <mxPoint x="3249.5" y="590" as="targetPoint"/>
                    </mxGeometry>
                </mxCell>
                <mxCell id="rkFF4-tBA8jDZ-ocCVDX-94" value="" style="endArrow=classic;html=1;entryX=0.5;entryY=0;entryDx=0;entryDy=0;" parent="1" target="rkFF4-tBA8jDZ-ocCVDX-89" edge="1">
                    <mxGeometry width="50" height="50" relative="1" as="geometry">
                        <mxPoint x="3250" y="650" as="sourcePoint"/>
                        <mxPoint x="3249.5" y="700" as="targetPoint"/>
                    </mxGeometry>
                </mxCell>
                <mxCell id="rkFF4-tBA8jDZ-ocCVDX-95" value="" style="endArrow=classic;html=1;entryX=0.408;entryY=0.017;entryDx=0;entryDy=0;entryPerimeter=0;" parent="1" target="rkFF4-tBA8jDZ-ocCVDX-87" edge="1">
                    <mxGeometry width="50" height="50" relative="1" as="geometry">
                        <mxPoint x="3509.5" y="400" as="sourcePoint"/>
                        <mxPoint x="3509.5" y="460" as="targetPoint"/>
                    </mxGeometry>
                </mxCell>
                <mxCell id="rkFF4-tBA8jDZ-ocCVDX-96" value="" style="endArrow=classic;html=1;entryX=0.408;entryY=-0.017;entryDx=0;entryDy=0;entryPerimeter=0;" parent="1" target="rkFF4-tBA8jDZ-ocCVDX-88" edge="1">
                    <mxGeometry width="50" height="50" relative="1" as="geometry">
                        <mxPoint x="3510.04" y="590" as="sourcePoint"/>
                        <mxPoint x="3509.5" y="721.02" as="targetPoint"/>
                    </mxGeometry>
                </mxCell>
                <mxCell id="rkFF4-tBA8jDZ-ocCVDX-97" value="50" style="ellipse;whiteSpace=wrap;html=1;aspect=fixed;strokeWidth=1;fillColor=#dae8fc;strokeColor=#6c8ebf;" parent="1" vertex="1">
                    <mxGeometry x="3350" y="830" width="80" height="80" as="geometry"/>
                </mxCell>
                <mxCell id="rkFF4-tBA8jDZ-ocCVDX-98" value="80" style="ellipse;whiteSpace=wrap;html=1;aspect=fixed;strokeWidth=1;fillColor=#dae8fc;strokeColor=#6c8ebf;" parent="1" vertex="1">
                    <mxGeometry x="3080" y="700" width="80" height="80" as="geometry"/>
                </mxCell>
                <mxCell id="rkFF4-tBA8jDZ-ocCVDX-99" value="60" style="ellipse;whiteSpace=wrap;html=1;aspect=fixed;strokeWidth=1;fillColor=#dae8fc;strokeColor=#6c8ebf;" parent="1" vertex="1">
                    <mxGeometry x="2960" y="1160" width="80" height="80" as="geometry"/>
                </mxCell>
                <mxCell id="rkFF4-tBA8jDZ-ocCVDX-100" value="" style="shape=flexArrow;endArrow=classic;html=1;entryX=1;entryY=0.5;entryDx=0;entryDy=0;" parent="1" source="rkFF4-tBA8jDZ-ocCVDX-89" target="rkFF4-tBA8jDZ-ocCVDX-98" edge="1">
                    <mxGeometry width="50" height="50" relative="1" as="geometry">
                        <mxPoint x="3220" y="820" as="sourcePoint"/>
                        <mxPoint x="3210" y="790" as="targetPoint"/>
                    </mxGeometry>
                </mxCell>
                <mxCell id="rkFF4-tBA8jDZ-ocCVDX-101" value="" style="shape=flexArrow;endArrow=classic;html=1;entryX=0;entryY=0.5;entryDx=0;entryDy=0;exitX=1;exitY=0.5;exitDx=0;exitDy=0;" parent="1" source="rkFF4-tBA8jDZ-ocCVDX-90" target="rkFF4-tBA8jDZ-ocCVDX-99" edge="1">
                    <mxGeometry width="50" height="50" relative="1" as="geometry">
                        <mxPoint x="2910" y="1330" as="sourcePoint"/>
                        <mxPoint x="2960" y="1280" as="targetPoint"/>
                    </mxGeometry>
                </mxCell>
                <mxCell id="rkFF4-tBA8jDZ-ocCVDX-102" value="" style="shape=flexArrow;endArrow=classic;html=1;entryX=1;entryY=0.5;entryDx=0;entryDy=0;exitX=0;exitY=0.5;exitDx=0;exitDy=0;" parent="1" source="rkFF4-tBA8jDZ-ocCVDX-88" target="rkFF4-tBA8jDZ-ocCVDX-97" edge="1">
                    <mxGeometry width="50" height="50" relative="1" as="geometry">
                        <mxPoint x="3430" y="800" as="sourcePoint"/>
                        <mxPoint x="3480" y="750" as="targetPoint"/>
                    </mxGeometry>
                </mxCell>
                <mxCell id="rkFF4-tBA8jDZ-ocCVDX-103" value="100" style="ellipse;whiteSpace=wrap;html=1;aspect=fixed;" parent="1" vertex="1">
                    <mxGeometry x="4370" y="275" width="80" height="80" as="geometry"/>
                </mxCell>
                <mxCell id="rkFF4-tBA8jDZ-ocCVDX-104" value="Access balance" style="rounded=1;whiteSpace=wrap;html=1;" parent="1" vertex="1">
                    <mxGeometry x="4110" y="460" width="120" height="60" as="geometry"/>
                </mxCell>
                <mxCell id="rkFF4-tBA8jDZ-ocCVDX-105" value="Access balance" style="rounded=1;whiteSpace=wrap;html=1;" parent="1" vertex="1">
                    <mxGeometry x="4500" y="790" width="120" height="60" as="geometry"/>
                </mxCell>
                <mxCell id="rkFF4-tBA8jDZ-ocCVDX-106" value="Access balance" style="rounded=1;whiteSpace=wrap;html=1;" parent="1" vertex="1">
                    <mxGeometry x="4760" y="345" width="120" height="60" as="geometry"/>
                </mxCell>
                <mxCell id="rkFF4-tBA8jDZ-ocCVDX-107" value="Peter" style="text;html=1;strokeColor=none;fillColor=none;align=center;verticalAlign=middle;whiteSpace=wrap;rounded=0;strokeWidth=3;" parent="1" vertex="1">
                    <mxGeometry x="4130" y="225" width="40" height="20" as="geometry"/>
                </mxCell>
                <mxCell id="rkFF4-tBA8jDZ-ocCVDX-108" value="Bank" style="text;html=1;strokeColor=none;fillColor=none;align=center;verticalAlign=middle;whiteSpace=wrap;rounded=0;strokeWidth=3;" parent="1" vertex="1">
                    <mxGeometry x="4390" y="225" width="40" height="20" as="geometry"/>
                </mxCell>
                <mxCell id="rkFF4-tBA8jDZ-ocCVDX-109" value="Paul" style="text;html=1;strokeColor=none;fillColor=none;align=center;verticalAlign=middle;whiteSpace=wrap;rounded=0;strokeWidth=3;" parent="1" vertex="1">
                    <mxGeometry x="4540" y="225" width="40" height="20" as="geometry"/>
                </mxCell>
                <mxCell id="rkFF4-tBA8jDZ-ocCVDX-110" value="Mary" style="text;html=1;strokeColor=none;fillColor=none;align=center;verticalAlign=middle;whiteSpace=wrap;rounded=0;strokeWidth=3;" parent="1" vertex="1">
                    <mxGeometry x="4810" y="225" width="40" height="20" as="geometry"/>
                </mxCell>
                <mxCell id="rkFF4-tBA8jDZ-ocCVDX-111" value="" style="endArrow=classic;html=1;exitX=0;exitY=0.5;exitDx=0;exitDy=0;entryX=0.425;entryY=0.017;entryDx=0;entryDy=0;entryPerimeter=0;" parent="1" source="rkFF4-tBA8jDZ-ocCVDX-103" target="rkFF4-tBA8jDZ-ocCVDX-104" edge="1">
                    <mxGeometry width="50" height="50" relative="1" as="geometry">
                        <mxPoint x="4440" y="535" as="sourcePoint"/>
                        <mxPoint x="4490" y="485" as="targetPoint"/>
                    </mxGeometry>
                </mxCell>
                <mxCell id="rkFF4-tBA8jDZ-ocCVDX-112" value="" style="endArrow=classic;html=1;exitX=1;exitY=0.5;exitDx=0;exitDy=0;" parent="1" source="rkFF4-tBA8jDZ-ocCVDX-130" target="rkFF4-tBA8jDZ-ocCVDX-105" edge="1">
                    <mxGeometry width="50" height="50" relative="1" as="geometry">
                        <mxPoint x="4450" y="313.98000000000025" as="sourcePoint"/>
                        <mxPoint x="4221" y="415" as="targetPoint"/>
                    </mxGeometry>
                </mxCell>
                <mxCell id="rkFF4-tBA8jDZ-ocCVDX-113" value="" style="endArrow=classic;html=1;exitX=1;exitY=0.5;exitDx=0;exitDy=0;" parent="1" source="rkFF4-tBA8jDZ-ocCVDX-103" target="rkFF4-tBA8jDZ-ocCVDX-106" edge="1">
                    <mxGeometry width="50" height="50" relative="1" as="geometry">
                        <mxPoint x="5009" y="303.98" as="sourcePoint"/>
                        <mxPoint x="4780" y="405" as="targetPoint"/>
                    </mxGeometry>
                </mxCell>
                <mxCell id="rkFF4-tBA8jDZ-ocCVDX-114" value="New value 100+10 = 110" style="rounded=1;whiteSpace=wrap;html=1;" parent="1" vertex="1">
                    <mxGeometry x="4110" y="580" width="120" height="60" as="geometry"/>
                </mxCell>
                <mxCell id="rkFF4-tBA8jDZ-ocCVDX-115" value="" style="endArrow=classic;html=1;" parent="1" edge="1">
                    <mxGeometry width="50" height="50" relative="1" as="geometry">
                        <mxPoint x="4000" y="225" as="sourcePoint"/>
                        <mxPoint x="4000" y="1215" as="targetPoint"/>
                    </mxGeometry>
                </mxCell>
                <mxCell id="rkFF4-tBA8jDZ-ocCVDX-116" value="Time" style="text;html=1;strokeColor=none;fillColor=none;align=center;verticalAlign=middle;whiteSpace=wrap;rounded=0;strokeWidth=3;" parent="1" vertex="1">
                    <mxGeometry x="3980" y="1235" width="40" height="20" as="geometry"/>
                </mxCell>
                <mxCell id="rkFF4-tBA8jDZ-ocCVDX-117" value="New value 110-20 =90" style="rounded=1;whiteSpace=wrap;html=1;" parent="1" vertex="1">
                    <mxGeometry x="4500" y="910" width="120" height="60" as="geometry"/>
                </mxCell>
                <mxCell id="rkFF4-tBA8jDZ-ocCVDX-118" value="New value 100/2 =50" style="rounded=1;whiteSpace=wrap;html=1;" parent="1" vertex="1">
                    <mxGeometry x="4770" y="535" width="120" height="60" as="geometry"/>
                </mxCell>
                <mxCell id="rkFF4-tBA8jDZ-ocCVDX-119" value="Set! balance to 50" style="rounded=1;whiteSpace=wrap;html=1;" parent="1" vertex="1">
                    <mxGeometry x="4770" y="845" width="120" height="60" as="geometry"/>
                </mxCell>
                <mxCell id="rkFF4-tBA8jDZ-ocCVDX-120" value="Set! balance to 90" style="rounded=1;whiteSpace=wrap;html=1;" parent="1" vertex="1">
                    <mxGeometry x="4500" y="1030" width="120" height="60" as="geometry"/>
                </mxCell>
                <mxCell id="rkFF4-tBA8jDZ-ocCVDX-121" value="Set! balance to 110" style="rounded=1;whiteSpace=wrap;html=1;" parent="1" vertex="1">
                    <mxGeometry x="4110" y="700" width="120" height="60" as="geometry"/>
                </mxCell>
                <mxCell id="rkFF4-tBA8jDZ-ocCVDX-122" value="" style="endArrow=classic;html=1;exitX=0.5;exitY=1;exitDx=0;exitDy=0;entryX=0.5;entryY=0;entryDx=0;entryDy=0;" parent="1" source="rkFF4-tBA8jDZ-ocCVDX-104" target="rkFF4-tBA8jDZ-ocCVDX-114" edge="1">
                    <mxGeometry width="50" height="50" relative="1" as="geometry">
                        <mxPoint x="4300" y="630" as="sourcePoint"/>
                        <mxPoint x="4350" y="580" as="targetPoint"/>
                    </mxGeometry>
                </mxCell>
                <mxCell id="rkFF4-tBA8jDZ-ocCVDX-123" value="" style="endArrow=classic;html=1;exitX=0.5;exitY=1;exitDx=0;exitDy=0;entryX=0.5;entryY=0;entryDx=0;entryDy=0;" parent="1" edge="1">
                    <mxGeometry width="50" height="50" relative="1" as="geometry">
                        <mxPoint x="4169.5" y="640" as="sourcePoint"/>
                        <mxPoint x="4169.5" y="700" as="targetPoint"/>
                    </mxGeometry>
                </mxCell>
                <mxCell id="rkFF4-tBA8jDZ-ocCVDX-124" value="" style="endArrow=classic;html=1;exitX=0.5;exitY=1;exitDx=0;exitDy=0;entryX=0.5;entryY=0;entryDx=0;entryDy=0;" parent="1" edge="1">
                    <mxGeometry width="50" height="50" relative="1" as="geometry">
                        <mxPoint x="4559.5" y="850" as="sourcePoint"/>
                        <mxPoint x="4559.5" y="910" as="targetPoint"/>
                    </mxGeometry>
                </mxCell>
                <mxCell id="rkFF4-tBA8jDZ-ocCVDX-125" value="" style="endArrow=classic;html=1;entryX=0.5;entryY=0;entryDx=0;entryDy=0;" parent="1" target="rkFF4-tBA8jDZ-ocCVDX-120" edge="1">
                    <mxGeometry width="50" height="50" relative="1" as="geometry">
                        <mxPoint x="4560" y="970" as="sourcePoint"/>
                        <mxPoint x="4559.5" y="1020" as="targetPoint"/>
                    </mxGeometry>
                </mxCell>
                <mxCell id="rkFF4-tBA8jDZ-ocCVDX-126" value="" style="endArrow=classic;html=1;entryX=0.408;entryY=0.017;entryDx=0;entryDy=0;entryPerimeter=0;" parent="1" target="rkFF4-tBA8jDZ-ocCVDX-118" edge="1">
                    <mxGeometry width="50" height="50" relative="1" as="geometry">
                        <mxPoint x="4819.5" y="405" as="sourcePoint"/>
                        <mxPoint x="4819.5" y="465" as="targetPoint"/>
                    </mxGeometry>
                </mxCell>
                <mxCell id="rkFF4-tBA8jDZ-ocCVDX-127" value="" style="endArrow=classic;html=1;entryX=0.408;entryY=-0.017;entryDx=0;entryDy=0;entryPerimeter=0;" parent="1" target="rkFF4-tBA8jDZ-ocCVDX-119" edge="1">
                    <mxGeometry width="50" height="50" relative="1" as="geometry">
                        <mxPoint x="4820.04" y="595" as="sourcePoint"/>
                        <mxPoint x="4819.5" y="726.02" as="targetPoint"/>
                    </mxGeometry>
                </mxCell>
                <mxCell id="rkFF4-tBA8jDZ-ocCVDX-128" value="50" style="ellipse;whiteSpace=wrap;html=1;aspect=fixed;strokeWidth=1;fillColor=#dae8fc;strokeColor=#6c8ebf;" parent="1" vertex="1">
                    <mxGeometry x="4660" y="835" width="80" height="80" as="geometry"/>
                </mxCell>
                <mxCell id="rkFF4-tBA8jDZ-ocCVDX-129" value="90" style="ellipse;whiteSpace=wrap;html=1;aspect=fixed;strokeWidth=1;fillColor=#dae8fc;strokeColor=#6c8ebf;" parent="1" vertex="1">
                    <mxGeometry x="4390" y="1020" width="80" height="80" as="geometry"/>
                </mxCell>
                <mxCell id="rkFF4-tBA8jDZ-ocCVDX-130" value="110" style="ellipse;whiteSpace=wrap;html=1;aspect=fixed;strokeWidth=1;fillColor=#dae8fc;strokeColor=#6c8ebf;" parent="1" vertex="1">
                    <mxGeometry x="4270" y="690" width="80" height="80" as="geometry"/>
                </mxCell>
                <mxCell id="rkFF4-tBA8jDZ-ocCVDX-131" value="" style="shape=flexArrow;endArrow=classic;html=1;entryX=1;entryY=0.5;entryDx=0;entryDy=0;" parent="1" source="rkFF4-tBA8jDZ-ocCVDX-120" target="rkFF4-tBA8jDZ-ocCVDX-129" edge="1">
                    <mxGeometry width="50" height="50" relative="1" as="geometry">
                        <mxPoint x="4530" y="1140" as="sourcePoint"/>
                        <mxPoint x="4520" y="1110" as="targetPoint"/>
                    </mxGeometry>
                </mxCell>
                <mxCell id="rkFF4-tBA8jDZ-ocCVDX-132" value="" style="shape=flexArrow;endArrow=classic;html=1;entryX=0;entryY=0.5;entryDx=0;entryDy=0;exitX=1;exitY=0.5;exitDx=0;exitDy=0;" parent="1" source="rkFF4-tBA8jDZ-ocCVDX-121" target="rkFF4-tBA8jDZ-ocCVDX-130" edge="1">
                    <mxGeometry width="50" height="50" relative="1" as="geometry">
                        <mxPoint x="4220" y="860" as="sourcePoint"/>
                        <mxPoint x="4270" y="810" as="targetPoint"/>
                    </mxGeometry>
                </mxCell>
                <mxCell id="rkFF4-tBA8jDZ-ocCVDX-133" value="" style="shape=flexArrow;endArrow=classic;html=1;entryX=1;entryY=0.5;entryDx=0;entryDy=0;exitX=0;exitY=0.5;exitDx=0;exitDy=0;" parent="1" source="rkFF4-tBA8jDZ-ocCVDX-119" target="rkFF4-tBA8jDZ-ocCVDX-128" edge="1">
                    <mxGeometry width="50" height="50" relative="1" as="geometry">
                        <mxPoint x="4740" y="805" as="sourcePoint"/>
                        <mxPoint x="4790" y="755" as="targetPoint"/>
                    </mxGeometry>
                </mxCell>
            </root>
        </mxGraphModel>
    </diagram>
</mxfile>